<?xml version="1.0" standalone="no"?>
<!DOCTYPE svg PUBLIC "-//W3C//DTD SVG 20010904//EN"
 "http://www.w3.org/TR/2001/REC-SVG-20010904/DTD/svg10.dtd">
<svg version="1.0" xmlns="http://www.w3.org/2000/svg"
 width="500.000000pt" height="500.000000pt" viewBox="0 0 500.000000 500.000000"
 preserveAspectRatio="xMidYMid meet">
<metadata>
Created by potrace 1.16, written by Peter Selinger 2001-2019
</metadata>
<g transform="translate(0.000000,500.000000) scale(0.100000,-0.100000)"
fill="#000000" stroke="none">
<path d="M2119 4866 c-57 -20 -96 -53 -118 -99 -27 -56 -27 -102 2 -157 17
-36 33 -50 76 -71 l53 -26 -32 -17 c-18 -9 -39 -16 -47 -16 -7 0 -16 -7 -19
-15 -4 -8 -17 -15 -29 -15 -25 0 -79 -55 -72 -74 4 -11 14 -11 88 0 62 10 126
-37 147 -106 12 -37 46 -439 39 -447 -3 -2 -13 31 -22 74 -29 130 -87 222
-162 255 -37 16 -51 18 -100 9 -66 -13 -133 -49 -158 -87 -25 -38 -30 -95 -11
-119 16 -19 16 -19 5 7 -35 82 53 176 176 185 45 4 70 1 92 -11 40 -20 97 -89
116 -141 26 -67 65 -252 86 -405 58 -421 113 -693 146 -730 22 -24 48 -107 40
-127 -5 -15 -7 -15 -15 -3 -8 13 -10 12 -10 -2 0 -9 -16 -26 -36 -38 -20 -13
-48 -45 -65 -75 -29 -52 -31 -53 -107 -74 -129 -34 -131 -34 -149 -20 -17 15
6 -30 145 -276 163 -289 282 -506 282 -516 0 -6 -14 -9 -32 -7 -27 3 -37 11
-64 58 -17 30 -58 102 -91 160 -33 58 -138 242 -233 410 -255 449 -309 540
-324 540 -8 0 -19 -13 -26 -29 l-12 -29 -65 19 c-36 10 -68 20 -70 23 -3 2 5
26 16 52 12 26 20 49 18 51 -4 3 -45 -84 -65 -138 -6 -14 -22 -39 -37 -57 -14
-17 -25 -37 -24 -44 3 -26 -1 -38 -23 -57 -17 -17 -19 -23 -8 -36 13 -16 5
-34 -29 -63 -11 -9 -13 -17 -5 -29 7 -12 -1 -36 -34 -100 -30 -57 -42 -93 -39
-110 3 -19 -1 -26 -19 -33 -19 -8 -24 -17 -24 -44 0 -22 -6 -36 -16 -40 -10
-4 -14 -16 -12 -35 1 -18 -5 -37 -16 -50 -15 -17 -17 -26 -9 -44 9 -19 8 -26
-8 -35 -23 -14 -52 -69 -44 -82 3 -6 2 -10 -3 -10 -8 0 -42 -75 -42 -93 0 -4
11 -5 25 -1 20 5 27 1 36 -20 7 -15 20 -26 32 -26 19 0 19 0 -1 -17 -11 -10
-23 -33 -27 -51 -6 -29 -5 -32 19 -32 16 0 30 -8 38 -22 11 -22 12 -21 25 22
7 24 10 53 7 65 -4 14 -3 16 4 6 6 -9 19 -11 40 -6 26 5 33 2 48 -20 9 -14 15
-28 12 -30 -3 -3 -11 6 -18 20 -23 43 -50 31 -79 -37 l-20 -47 28 5 c22 5 32
1 45 -17 9 -13 16 -28 16 -34 -1 -5 -8 2 -16 18 -16 30 -45 35 -64 12 -12 -15
-35 -11 -25 5 3 4 -4 19 -15 31 -18 23 -20 24 -49 7 -30 -16 -31 -16 -31 1 0
10 -8 28 -17 40 -16 18 -21 19 -43 8 -18 -9 -35 -38 -62 -107 -21 -52 -38 -98
-38 -102 0 -4 13 -5 29 -2 25 5 32 2 45 -24 14 -27 19 -30 54 -25 32 4 42 1
55 -17 12 -18 21 -20 50 -15 29 6 37 3 51 -16 9 -13 16 -28 16 -34 -1 -5 -8 3
-16 18 -26 49 -82 18 -98 -55 -6 -26 -4 -27 22 -22 20 4 33 0 46 -15 21 -24
41 -28 33 -8 -3 8 1 27 8 43 7 16 29 88 48 159 178 649 191 688 261 763 49 54
100 84 205 122 115 42 115 42 134 -34 22 -88 71 -203 116 -273 42 -65 157
-176 205 -199 20 -10 42 -36 64 -75 l34 -60 -25 -23 c-31 -29 -57 -80 -87
-168 l-22 -67 -74 -27 c-41 -15 -74 -29 -74 -32 0 -10 82 -227 95 -252 23 -43
45 -188 45 -292 0 -78 -6 -123 -29 -211 -35 -133 -64 -288 -59 -314 2 -10 12
32 22 94 9 62 31 161 47 220 16 59 29 125 29 145 0 36 1 37 51 47 79 17 229
26 229 14 0 -6 -11 -36 -25 -66 -33 -72 -71 -225 -85 -341 -12 -102 -1 -241
24 -316 9 -25 14 -34 11 -20 -2 14 -7 45 -11 69 l-7 44 43 -6 c29 -4 39 -2 29
4 -10 6 -7 8 14 7 15 -1 27 -8 27 -15 0 -19 70 -167 76 -161 3 4 -3 23 -14 45
-56 110 -82 242 -82 407 0 138 12 195 61 287 l34 64 45 0 44 0 28 -70 c14 -38
32 -101 38 -140 28 -177 43 -253 62 -302 20 -55 84 -133 108 -133 8 0 2 12
-15 30 -16 16 -25 33 -22 37 4 3 7 3 7 -1 0 -3 18 3 41 14 41 21 41 21 82 2
49 -22 107 -38 92 -24 -5 5 -31 16 -57 26 -57 21 -121 87 -155 162 -13 30 -34
105 -45 167 -11 61 -28 136 -39 166 -10 30 -17 57 -14 59 6 6 182 -16 226 -28
39 -11 40 -14 69 -175 8 -45 9 -42 5 25 -3 41 -12 97 -20 124 -8 27 -15 83
-15 125 0 77 33 250 49 260 12 9 81 255 73 262 -4 4 -36 12 -71 18 -36 6 -68
16 -73 23 -4 7 -19 49 -33 93 -14 46 -37 95 -54 116 l-30 36 22 46 c17 34 37
56 84 87 72 48 167 146 214 222 l33 54 62 -4 c101 -7 157 23 138 71 -5 13 -19
16 -70 15 -35 -1 -68 2 -73 7 -6 7 16 154 28 182 3 5 152 -42 183 -58 58 -30
109 -79 129 -127 11 -24 24 -84 29 -134 8 -70 20 -113 52 -185 22 -51 43 -92
44 -90 2 2 -12 41 -32 88 -24 57 -39 111 -45 167 -12 107 -40 187 -81 230 -41
41 -131 84 -225 107 -63 15 -71 19 -63 34 16 31 40 44 96 52 65 9 131 52 177
117 42 57 50 148 18 209 -40 80 -112 118 -210 111 -120 -9 -164 -55 -202 -212
-23 -93 -22 -110 10 -119 28 -7 51 31 61 102 16 111 48 156 124 168 49 8 120
-20 147 -59 30 -42 28 -94 -7 -159 -33 -62 -68 -84 -163 -100 -54 -10 -66 -16
-101 -56 -22 -25 -40 -50 -40 -55 0 -12 -83 2 -92 16 -12 18 -48 181 -48 218
0 19 4 38 9 44 6 5 14 32 18 59 7 40 13 51 30 53 40 6 46 26 28 89 -9 32 -28
77 -43 101 -35 61 -41 163 -10 192 37 34 145 64 231 65 91 0 87 -11 38 124
-48 129 -84 206 -153 328 -35 62 -81 145 -104 185 -23 40 -71 122 -107 182
l-67 108 30 28 c20 19 30 37 29 57 0 25 -2 24 -13 -12 -7 -26 -18 -41 -31 -44
-19 -3 -19 -2 -4 15 23 27 49 84 49 107 0 44 -96 107 -165 107 -34 0 -119 -46
-147 -78 -25 -30 -56 -127 -45 -139 3 -3 9 8 12 23 16 80 31 109 72 138 77 54
212 44 245 -17 9 -18 6 -17 -21 5 -104 88 -281 -3 -281 -144 0 -76 75 -263
150 -373 45 -67 167 -296 194 -365 43 -112 74 -258 62 -303 -5 -23 -8 -24
-113 -23 -79 0 -122 -4 -160 -17 -55 -19 -98 -60 -109 -103 -4 -17 -13 -24
-29 -24 -33 0 -41 47 -12 78 l20 22 -52 0 c-66 0 -108 18 -148 63 -59 67 -67
158 -20 229 25 37 82 78 106 78 9 -1 2 -7 -14 -14 -67 -29 -115 -103 -115
-176 0 -34 32 -100 61 -127 49 -44 142 -57 200 -28 16 9 34 13 40 10 5 -4 8
-3 7 2 -1 4 10 26 25 48 15 22 27 35 27 29 0 -6 -9 -23 -21 -38 -24 -30 -16
-32 37 -10 31 13 61 15 143 11 l104 -5 -6 57 c-10 85 -46 217 -82 297 -28 62
-61 117 -212 363 -18 30 -33 52 -33 48 0 -17 -236 233 -272 287 -32 49 -38 68
-38 111 0 60 26 106 79 142 48 32 21 39 -82 20 -45 -8 -83 -14 -85 -12 -2 1 8
20 23 40 57 86 18 196 -87 240 -45 18 -139 19 -189 1z m201 -23 l55 -27 -58
-7 c-35 -4 -70 -15 -88 -28 -24 -18 -37 -21 -78 -15 -37 5 -59 2 -96 -15 -27
-12 -50 -19 -52 -17 -3 2 2 17 10 33 50 95 194 131 307 76z m310 -1945 c0 -22
-181 -142 -193 -128 -3 3 -8 15 -11 27 -6 17 1 27 36 51 24 17 61 49 83 72
l40 41 22 -28 c13 -15 23 -31 23 -35z m-798 -205 c59 -104 108 -194 110 -201
2 -9 -27 -23 -88 -41 -161 -48 -257 -108 -311 -194 -22 -34 -27 -38 -35 -23
-7 12 -4 23 11 42 12 15 22 48 26 82 4 31 8 68 10 82 2 14 4 31 4 38 1 6 8 12
16 12 10 0 15 11 15 35 0 22 8 43 20 55 12 12 18 25 14 31 -10 17 5 59 21 59
10 0 15 11 15 33 0 54 40 177 58 177 4 0 55 -84 114 -187z m530 -83 c-6 -78
17 -140 72 -195 60 -60 121 -85 206 -85 82 0 130 17 179 63 34 33 101 157 101
189 0 9 4 19 9 23 32 19 42 -129 14 -210 -22 -67 -92 -136 -169 -165 -46 -19
-79 -24 -154 -24 -86 -1 -101 2 -160 30 -73 34 -131 89 -160 150 -25 50 -27
149 -5 202 15 36 52 82 65 82 3 0 4 -27 2 -60z m-202 -151 c13 -68 61 -171
104 -223 71 -86 213 -144 351 -145 141 -1 263 47 344 134 43 46 101 155 101
188 0 9 5 17 11 17 11 0 8 -14 -23 -98 -24 -65 -108 -158 -175 -194 -72 -39
-159 -61 -248 -62 -262 -2 -444 150 -481 401 -9 64 3 51 16 -18z m859 -310
c-52 -73 -159 -128 -307 -157 -95 -19 -196 -9 -295 28 -65 24 -149 78 -156
100 -3 9 8 5 30 -11 80 -61 223 -109 323 -109 127 1 290 61 377 139 53 49 57
50 28 10z m-350 -355 c22 -37 21 -93 -1 -121 -5 -6 -11 -44 -13 -83 -3 -64
-13 -106 -16 -69 -5 50 -8 62 -18 72 -6 6 -11 21 -11 33 0 13 -4 25 -8 28 -5
3 -9 25 -9 49 -1 38 3 46 23 56 18 8 24 19 24 41 0 16 2 30 4 30 2 0 14 -16
25 -36z m-69 -452 c0 -20 -49 -112 -63 -118 -7 -2 -91 -3 -187 -2 l-175 3 50
26 c28 15 86 41 130 58 44 17 107 46 140 65 l60 34 22 -26 c13 -15 23 -33 23
-40z m382 -64 c54 -18 98 -36 98 -39 0 -16 -45 -21 -210 -26 l-175 -6 23 26
23 25 -20 37 c-18 34 -19 41 -6 65 l14 28 78 -38 c43 -22 122 -54 175 -72z"/>
<path d="M1910 4134 c-74 -24 -111 -50 -130 -90 -19 -39 -20 -45 -6 -78 8 -20
20 -36 26 -36 6 0 9 -3 7 -7 -3 -5 10 -8 29 -9 19 0 39 -5 45 -11 5 -5 21
-131 34 -279 50 -545 67 -719 70 -722 2 -2 47 2 100 9 74 9 109 9 149 0 83
-18 112 -42 132 -105 10 -31 19 -54 22 -52 10 11 -34 114 -58 136 -25 22 -30
40 -49 155 -11 72 -37 222 -56 335 -20 113 -49 284 -66 380 -45 266 -66 315
-152 355 -52 25 -68 28 -97 19z"/>
<path d="M954 1419 c-21 -11 -58 -94 -48 -110 3 -5 1 -9 -4 -9 -9 0 -42 -70
-42 -89 0 -4 17 -8 37 -7 31 1 40 -3 48 -22 9 -21 15 -23 53 -18 39 5 46 3 72
-25 24 -27 31 -29 49 -19 29 15 55 5 70 -28 l13 -27 17 50 c9 28 13 54 9 60
-10 11 -11 31 -1 21 4 -4 15 17 25 45 10 29 14 55 10 58 -5 3 -14 16 -21 29
-15 27 -45 28 -71 2 -19 -19 -20 -19 -20 -1 0 10 -9 29 -19 42 -18 22 -21 23
-56 10 -20 -7 -37 -11 -39 -9 -1 1 -7 15 -14 31 -12 28 -32 33 -68 16z"/>
</g>
</svg>
