<?xml version="1.0" standalone="no"?>
<!DOCTYPE svg PUBLIC "-//W3C//DTD SVG 20010904//EN"
 "http://www.w3.org/TR/2001/REC-SVG-20010904/DTD/svg10.dtd">
<svg version="1.0" xmlns="http://www.w3.org/2000/svg"
 width="500.000000pt" height="500.000000pt" viewBox="0 0 500.000000 500.000000"
 preserveAspectRatio="xMidYMid meet">
<metadata>
Created by potrace 1.16, written by Peter Selinger 2001-2019
</metadata>
<g transform="translate(0.000000,500.000000) scale(0.100000,-0.100000)"
fill="#000000" stroke="none">
<path d="M2250 4765 c0 -74 -3 -135 -7 -134 -5 0 -52 59 -107 130 -54 71 -101
128 -103 125 -6 -5 35 -178 58 -245 11 -30 19 -58 19 -63 0 -11 -29 5 -57 32
-33 30 -29 16 24 -74 114 -197 223 -345 331 -451 l62 -60 0 -211 0 -211 -74
-7 c-153 -14 -240 -58 -295 -150 -42 -71 -46 -124 -12 -160 22 -23 23 -32 19
-93 -5 -58 -13 -81 -57 -158 -65 -116 -66 -145 -1 -145 10 0 22 -4 25 -10 3
-5 8 -64 11 -130 5 -135 -21 -305 -51 -326 -9 -7 -60 -26 -114 -43 -153 -49
-214 -97 -260 -203 -11 -26 -25 -75 -31 -110 -20 -108 -187 -453 -350 -723
-61 -99 -76 -109 -335 -215 -219 -90 -223 -92 -408 -156 l-128 -45 -47 28
c-26 15 -59 33 -74 40 -34 15 -34 13 -8 283 43 437 108 809 159 908 46 88 201
187 311 198 19 2 56 6 82 10 46 6 47 6 50 -22 4 -36 43 -47 53 -15 8 26 6 26
94 -4 77 -26 84 -13 11 20 -22 10 -39 20 -37 21 2 2 27 -3 57 -11 30 -8 57
-15 60 -15 11 1 -39 26 -95 47 l-60 24 62 -5 c74 -7 124 -26 175 -67 l37 -29
10 37 c6 21 11 53 11 72 0 38 -20 111 -30 111 -4 0 -17 -12 -31 -26 -37 -40
-97 -66 -163 -70 l-61 -4 36 14 c43 17 119 55 119 60 0 2 -21 2 -47 -1 l-48
-4 50 22 c66 28 176 36 233 16 l42 -15 0 37 c-1 50 -64 181 -88 181 -4 0 -20
-24 -35 -54 -16 -29 -38 -63 -50 -74 -24 -22 -168 -104 -173 -99 -2 2 16 19
41 37 25 18 43 35 41 37 -5 6 -84 -25 -133 -52 l-48 -27 47 45 c57 54 107 79
171 85 26 2 47 6 47 9 0 38 -109 143 -148 143 -5 0 -12 -27 -15 -60 -5 -62
-36 -128 -75 -163 -19 -18 -19 -15 4 40 33 81 29 100 -7 29 -34 -65 -45 -70
-24 -11 25 71 15 82 -16 16 -38 -84 -47 -95 -66 -79 -11 9 -18 8 -30 -5 -15
-15 -15 -18 1 -36 22 -24 9 -54 -34 -76 -16 -8 -33 -21 -37 -28 -4 -8 -41 -26
-82 -42 -171 -65 -254 -154 -295 -315 -42 -166 -90 -501 -125 -863 -11 -114
-22 -211 -25 -216 -3 -5 -27 -12 -52 -16 -77 -11 -117 -37 -80 -51 17 -6 45
-12 65 -13 11 -1 12 -19 7 -99 -6 -75 -4 -108 8 -141 13 -38 13 -58 0 -164 -7
-66 -12 -123 -9 -125 2 -2 10 -2 18 1 9 3 18 39 26 109 18 150 16 146 54 152
111 16 178 30 397 85 264 67 427 120 555 180 130 61 187 103 262 193 103 122
278 383 368 548 104 192 134 240 150 240 8 0 26 -53 50 -151 25 -102 52 -183
85 -252 26 -56 55 -127 64 -157 15 -53 42 -258 35 -264 -2 -1 -43 -16 -90 -33
l-87 -31 -63 38 c-35 22 -77 42 -94 45 -27 5 -190 -26 -202 -39 -14 -13 9 -35
39 -38 l33 -3 -56 -28 c-52 -25 -101 -69 -156 -140 -11 -15 -24 -27 -27 -27
-3 0 -6 47 -6 105 0 116 4 111 -71 97 l-37 -7 39 -100 c21 -55 39 -103 39
-107 0 -5 -74 -8 -165 -8 l-164 0 6 -52 c3 -29 6 -54 7 -55 2 -3 123 28 226
56 111 31 104 37 97 -84 l-7 -105 45 0 c24 0 46 3 48 8 3 4 -8 50 -23 102 -15
52 -23 96 -19 98 5 2 21 -5 36 -16 16 -10 46 -25 68 -33 54 -18 189 -16 244 5
24 9 56 16 71 16 15 0 87 16 159 36 73 20 135 34 137 31 8 -8 12 -211 4 -222
-11 -16 -32 -174 -25 -195 3 -10 14 -19 23 -19 26 0 97 -17 113 -27 8 -4 25
-7 38 -5 20 2 23 -1 17 -16 -6 -14 -5 -16 5 -5 15 14 33 16 25 3 -3 -5 4 -9
17 -10 52 -2 67 -6 67 -18 0 -7 5 -13 10 -13 6 0 10 5 10 11 0 6 16 1 35 -11
25 -15 35 -18 35 -8 0 10 3 9 10 -2 5 -8 10 -12 10 -7 0 4 14 1 30 -8 20 -10
30 -12 30 -4 0 8 5 7 17 -2 9 -8 19 -14 22 -14 3 0 5 -4 3 -9 -2 -5 3 -4 12 3
8 7 17 8 20 3 5 -8 30 -16 81 -28 6 -1 21 -2 34 -3 18 -1 22 -5 16 -19 -4 -13
-3 -14 5 -6 16 16 81 0 97 -22 9 -12 13 -14 13 -4 0 10 5 9 19 -4 14 -13 21
-14 26 -5 6 8 10 7 17 -5 5 -9 13 -14 19 -11 5 4 9 1 9 -5 0 -8 6 -8 20 0 14
8 20 8 20 0 0 -6 4 -9 9 -5 6 3 14 -3 20 -12 5 -10 12 -16 14 -13 8 8 -40 281
-62 350 -28 88 -51 268 -53 425 -2 129 -2 131 41 260 23 72 51 139 61 150 41
47 271 387 310 460 24 44 56 102 72 128 73 125 109 227 110 312 1 103 -56 157
-216 206 -56 17 -139 43 -184 58 l-84 28 37 21 c62 37 91 132 94 310 4 228
-80 444 -230 592 -120 118 -240 175 -409 192 l-110 12 0 216 0 217 73 74 c99
103 238 301 336 483 l32 60 -40 -42 c-41 -42 -68 -55 -57 -27 28 75 80 278 74
295 -2 6 -48 -48 -103 -120 l-100 -130 -6 67 c-4 38 -7 99 -8 138 0 38 -5 65
-9 60 -5 -6 -33 -70 -62 -143 -30 -72 -57 -129 -61 -125 -10 11 -109 250 -109
263 0 15 -27 12 -27 -2 0 -7 -25 -71 -56 -143 l-55 -130 -25 55 c-13 30 -39
94 -58 142 -19 49 -37 88 -41 88 -5 0 -8 -61 -8 -135z m185 -2188 c29 -58 36
-80 27 -86 -14 -9 -260 -36 -267 -29 -5 5 40 151 56 180 9 16 19 18 77 16 l67
-3 40 -78z m-675 -1707 l0 -110 -38 0 c-45 0 -129 23 -157 44 -18 13 -16 17
44 76 50 48 123 98 149 100 1 0 2 -49 2 -110z"/>
<path d="M3690 1134 c0 -9 -9 -18 -20 -21 -23 -6 -27 -33 -5 -33 22 0 22 -215
1 -223 -24 -9 -37 -73 -23 -115 15 -46 32 -51 32 -10 0 23 5 34 18 36 22 5 40
-37 23 -57 -9 -11 -8 -13 4 -9 43 14 50 111 11 152 -18 20 -21 35 -21 124 0
95 1 102 20 102 11 0 20 7 20 15 0 8 -9 15 -20 15 -13 0 -20 7 -20 20 0 11 -4
20 -10 20 -5 0 -10 -7 -10 -16z"/>
<path d="M3887 853 c34 -30 52 -76 34 -87 -6 -4 -11 -2 -11 3 0 6 -6 11 -14
11 -8 0 -24 12 -36 27 -14 18 -24 23 -31 16 -7 -7 -4 -14 7 -24 9 -8 19 -13
21 -11 1 1 2 0 1 -2 -2 -2 5 -12 14 -23 17 -18 61 -24 75 -10 3 4 73 7 155 7
l148 0 0 35 c0 28 4 35 20 35 11 0 20 3 20 8 0 4 -86 6 -191 4 -130 -2 -189 0
-184 8 3 5 1 11 -4 11 -20 3 -26 4 -41 12 -8 5 -1 -4 17 -20z"/>
</g>
</svg>
